<svg width="49" height="48" viewBox="0 0 49 48" fill="none" xmlns="http://www.w3.org/2000/svg">
<path d="M23.9221 2.06689C12.0526 2.06689 2.43164 11.6879 2.43164 23.5574C2.43164 25.9349 2.81864 28.2224 3.53114 30.3599C7.28864 28.0949 10.6456 26.5064 13.5976 25.4909C10.2511 26.0159 7.38164 27.7034 3.31664 25.8629C6.27014 23.2649 11.5231 19.7009 16.2826 19.1564C18.7711 17.1329 22.6591 15.0419 24.6751 15.6674C27.5296 13.1519 31.0381 9.94939 34.7941 7.64239C35.7931 9.15439 36.3961 11.0069 35.9686 13.0604C28.4461 14.9519 30.1966 26.9999 37.2316 19.3724C37.8256 20.5949 38.1121 21.8669 38.0821 23.2484C35.0236 26.4149 31.8136 29.1494 28.5406 31.4789C28.5841 33.7244 28.0141 36.4319 26.7601 39.4169C26.2321 40.6724 26.0746 42.8234 28.9006 44.4674C38.3671 42.2204 45.4111 33.7124 45.4111 23.5574C45.4111 11.6879 35.7886 2.06689 23.9206 2.06689H23.9221Z" fill="#63A594"/>
</svg>
