<svg width="224" height="40" viewBox="0 0 224 40" fill="none" xmlns="http://www.w3.org/2000/svg">
<path d="M61.148 9.176C61.0173 10.5013 60.952 11.696 60.952 12.76C60.952 13.6933 60.98 14.4587 61.036 15.056H60.392C60.2427 13.6187 60.056 12.5547 59.832 11.864C59.608 11.1547 59.216 10.6413 58.656 10.324C58.096 9.988 57.2373 9.82 56.08 9.82H54.316C53.644 9.82 53.1493 9.876 52.832 9.988C52.5333 10.0813 52.328 10.2867 52.216 10.604C52.104 10.9213 52.048 11.4347 52.048 12.144V19.032H54.092C54.7453 19.032 55.2493 18.8827 55.604 18.584C55.9587 18.2667 56.192 17.9027 56.304 17.492C56.4347 17.0627 56.5373 16.5307 56.612 15.896L56.696 15.336H57.34C57.284 16.12 57.256 16.9973 57.256 17.968V19.312C57.256 20.264 57.312 21.5893 57.424 23.288H56.78C56.7613 23.1573 56.7053 22.7093 56.612 21.944C56.5187 21.16 56.2573 20.572 55.828 20.18C55.4173 19.788 54.8387 19.592 54.092 19.592H52.048V26.032C52.048 26.7413 52.1227 27.2547 52.272 27.572C52.4213 27.8893 52.6827 28.104 53.056 28.216C53.4293 28.328 54.036 28.4027 54.876 28.44V29C53.9053 28.944 52.5333 28.916 50.76 28.916C49.1547 28.916 47.96 28.944 47.176 29V28.44C47.848 28.4027 48.3333 28.328 48.632 28.216C48.9493 28.104 49.164 27.8893 49.276 27.572C49.388 27.2547 49.444 26.7413 49.444 26.032V12.144C49.444 11.4347 49.388 10.9213 49.276 10.604C49.164 10.2867 48.9493 10.072 48.632 9.96C48.3333 9.848 47.848 9.77333 47.176 9.736V9.176C49.0053 9.232 51.712 9.26 55.296 9.26C58.04 9.26 59.9907 9.232 61.148 9.176ZM76.8934 25.696C76.8934 26.6667 76.9587 27.768 77.0894 29C75.8761 28.944 73.8321 28.916 70.9574 28.916C67.5041 28.916 64.8907 28.944 63.1174 29V28.44C63.7894 28.4027 64.2747 28.328 64.5734 28.216C64.8907 28.104 65.1054 27.8893 65.2174 27.572C65.3294 27.2547 65.3854 26.7413 65.3854 26.032V14.944C65.3854 14.2347 65.3294 13.7213 65.2174 13.404C65.1054 13.0867 64.8907 12.872 64.5734 12.76C64.2747 12.648 63.7894 12.5733 63.1174 12.536V11.976C64.8907 12.032 67.5041 12.06 70.9574 12.06C73.5707 12.06 75.4281 12.032 76.5294 11.976C76.3987 13.096 76.3334 14.104 76.3334 15C76.3334 15.728 76.3614 16.3067 76.4174 16.736H75.7734C75.6427 15.2053 75.3161 14.1413 74.7934 13.544C74.2894 12.928 73.4587 12.62 72.3014 12.62H70.2574C69.5854 12.62 69.0907 12.676 68.7734 12.788C68.4747 12.8813 68.2694 13.0867 68.1574 13.404C68.0454 13.7213 67.9894 14.2347 67.9894 14.944V20.152H70.3134C70.9107 20.152 71.3681 20.0027 71.6854 19.704C72.0027 19.3867 72.2174 19.0507 72.3294 18.696C72.4414 18.3227 72.5441 17.856 72.6374 17.296H73.2814C73.2254 17.9307 73.1974 18.6213 73.1974 19.368V20.432C73.1974 21.16 73.2534 22.2053 73.3654 23.568H72.7214C72.6094 22.672 72.3947 21.972 72.0774 21.468C71.7601 20.964 71.1721 20.712 70.3134 20.712H67.9894V26.032C67.9894 26.7413 68.0454 27.2547 68.1574 27.572C68.2694 27.8893 68.4747 28.104 68.7734 28.216C69.0907 28.3093 69.5854 28.356 70.2574 28.356H72.3014C73.2347 28.356 73.9721 28.2067 74.5134 27.908C75.0547 27.6093 75.4654 27.1333 75.7454 26.48C76.0254 25.808 76.2214 24.8747 76.3334 23.68H76.9774C76.9214 24.184 76.8934 24.856 76.8934 25.696ZM96.7938 12.536C96.1404 12.5733 95.6551 12.676 95.3378 12.844C95.0204 12.9933 94.8058 13.2547 94.6938 13.628C94.5818 13.9827 94.5258 14.5147 94.5258 15.224V29.14H93.8818L82.6818 13.628V25.752C82.6818 26.48 82.7378 27.0213 82.8498 27.376C82.9804 27.7307 83.2231 27.992 83.5778 28.16C83.9324 28.3093 84.4831 28.4027 85.2298 28.44V29C84.5578 28.944 83.6058 28.916 82.3738 28.916C81.2538 28.916 80.3858 28.944 79.7698 29V28.44C80.4231 28.4027 80.9084 28.3093 81.2258 28.16C81.5431 27.992 81.7578 27.7307 81.8698 27.376C81.9818 27.0027 82.0378 26.4613 82.0378 25.752V14.944C82.0378 14.2347 81.9818 13.7213 81.8698 13.404C81.7578 13.0867 81.5431 12.872 81.2258 12.76C80.9271 12.648 80.4418 12.5733 79.7698 12.536V11.976C80.3858 12.032 81.2538 12.06 82.3738 12.06C83.3818 12.06 84.2404 12.032 84.9498 11.976L93.8818 24.408V15.224C93.8818 14.496 93.8164 13.9547 93.6858 13.6C93.5738 13.2453 93.3404 12.9933 92.9857 12.844C92.6311 12.676 92.0804 12.5733 91.3338 12.536V11.976C92.0058 12.032 92.9578 12.06 94.1898 12.06C95.3098 12.06 96.1778 12.032 96.7938 11.976V12.536ZM115.294 27.824C114.939 28.328 114.528 28.72 114.062 29C113.614 29.2613 113.072 29.392 112.438 29.392C110.87 29.392 109.908 28.6827 109.554 27.264L108.686 23.764C108.424 22.7187 108.032 22.0187 107.51 21.664C107.006 21.3093 106.25 21.132 105.242 21.132H103.646V26.032C103.646 26.7413 103.702 27.2547 103.814 27.572C103.926 27.8893 104.131 28.104 104.43 28.216C104.747 28.328 105.242 28.4027 105.914 28.44V29C105.055 28.944 103.87 28.916 102.358 28.916C100.752 28.916 99.5577 28.944 98.7737 29V28.44C99.4457 28.4027 99.931 28.328 100.23 28.216C100.547 28.104 100.762 27.8893 100.874 27.572C100.986 27.2547 101.042 26.7413 101.042 26.032V14.944C101.042 14.2347 100.986 13.7213 100.874 13.404C100.762 13.0867 100.547 12.872 100.23 12.76C99.931 12.648 99.4457 12.5733 98.7737 12.536V11.976C99.5577 12.032 100.696 12.06 102.19 12.06L105.046 12.032C105.363 12.0133 105.727 12.004 106.138 12.004C108.228 12.004 109.824 12.396 110.926 13.18C112.046 13.964 112.606 14.9813 112.606 16.232C112.606 17.3147 112.167 18.304 111.29 19.2C110.431 20.096 109.012 20.6653 107.034 20.908C107.407 20.9453 107.724 20.9827 107.986 21.02C108.975 21.1693 109.759 21.468 110.338 21.916C110.916 22.364 111.327 23.0827 111.57 24.072L112.186 26.62C112.335 27.2733 112.494 27.74 112.662 28.02C112.848 28.2813 113.082 28.412 113.362 28.412C113.828 28.412 114.342 28.0947 114.902 27.46L115.294 27.824ZM105.438 12.536C104.934 12.536 104.551 12.6013 104.29 12.732C104.047 12.8627 103.879 13.096 103.786 13.432C103.692 13.768 103.646 14.272 103.646 14.944V20.572H105.522C107.164 20.572 108.284 20.2267 108.882 19.536C109.498 18.8267 109.806 17.828 109.806 16.54C109.806 15.196 109.46 14.1973 108.77 13.544C108.098 12.872 106.987 12.536 105.438 12.536ZM123.386 12.536C122.714 12.5733 122.22 12.648 121.902 12.76C121.604 12.872 121.398 13.0867 121.286 13.404C121.174 13.7213 121.118 14.2347 121.118 14.944V26.032C121.118 26.7413 121.174 27.2547 121.286 27.572C121.398 27.8893 121.604 28.104 121.902 28.216C122.22 28.328 122.714 28.4027 123.386 28.44V29C122.528 28.944 121.342 28.916 119.83 28.916C118.225 28.916 117.03 28.944 116.246 29V28.44C116.918 28.4027 117.404 28.328 117.702 28.216C118.02 28.104 118.234 27.8893 118.346 27.572C118.458 27.2547 118.514 26.7413 118.514 26.032V14.944C118.514 14.2347 118.458 13.7213 118.346 13.404C118.234 13.0867 118.02 12.872 117.702 12.76C117.404 12.648 116.918 12.5733 116.246 12.536V11.976C117.03 12.032 118.225 12.06 119.83 12.06C121.324 12.06 122.509 12.032 123.386 11.976V12.536ZM131.727 11.584C132.548 11.584 133.192 11.6773 133.659 11.864C134.144 12.032 134.639 12.284 135.143 12.62C135.553 12.8813 135.871 13.012 136.095 13.012C136.263 13.012 136.393 12.9187 136.487 12.732C136.58 12.5267 136.655 12.2093 136.711 11.78H137.355C137.261 12.7507 137.215 14.468 137.215 16.932H136.571C136.459 15.588 136.02 14.4493 135.255 13.516C134.508 12.5827 133.416 12.116 131.979 12.116C130.989 12.116 130.168 12.3773 129.515 12.9C128.88 13.4227 128.563 14.0853 128.563 14.888C128.563 15.4667 128.703 15.9707 128.983 16.4C129.281 16.8293 129.655 17.2027 130.103 17.52C130.569 17.8187 131.223 18.192 132.063 18.64L132.987 19.144C134.144 19.76 135.068 20.3107 135.759 20.796C136.468 21.2813 137.037 21.8413 137.467 22.476C137.896 23.092 138.111 23.8107 138.111 24.632C138.111 26.144 137.56 27.32 136.459 28.16C135.376 28.9813 134.013 29.392 132.371 29.392C131.475 29.392 130.737 29.2987 130.159 29.112C129.599 28.9253 129.057 28.6733 128.535 28.356C128.124 28.0947 127.807 27.964 127.583 27.964C127.415 27.964 127.284 28.0667 127.191 28.272C127.097 28.4587 127.023 28.7667 126.967 29.196H126.323C126.397 28.2813 126.435 26.228 126.435 23.036H127.079C127.209 24.772 127.676 26.172 128.479 27.236C129.281 28.3 130.513 28.832 132.175 28.832C133.108 28.832 133.911 28.5707 134.583 28.048C135.273 27.5067 135.619 26.7133 135.619 25.668C135.619 25.052 135.441 24.5107 135.087 24.044C134.732 23.5587 134.256 23.1293 133.659 22.756C133.061 22.3827 132.231 21.916 131.167 21.356C129.636 20.572 128.469 19.788 127.667 19.004C126.864 18.22 126.463 17.2027 126.463 15.952C126.463 14.5707 126.967 13.4973 127.975 12.732C129.001 11.9667 130.252 11.584 131.727 11.584ZM155.391 26.732C156.044 27.5533 156.772 28.1227 157.575 28.44V29C156.679 28.944 155.634 28.916 154.439 28.916C153.17 28.916 151.984 28.944 150.883 29V28.44C151.48 28.4213 151.91 28.3747 152.171 28.3C152.432 28.2067 152.563 28.076 152.563 27.908C152.563 27.7213 152.442 27.4787 152.199 27.18L148.475 22C148.102 21.4773 147.71 21.104 147.299 20.88C146.888 20.6373 146.319 20.5067 145.591 20.488V26.032C145.591 26.7413 145.647 27.2547 145.759 27.572C145.871 27.8893 146.076 28.104 146.375 28.216C146.692 28.328 147.187 28.4027 147.859 28.44V29C147 28.944 145.815 28.916 144.303 28.916C142.698 28.916 141.503 28.944 140.719 29V28.44C141.391 28.4027 141.876 28.328 142.175 28.216C142.492 28.104 142.707 27.8893 142.819 27.572C142.931 27.2547 142.987 26.7413 142.987 26.032V14.944C142.987 14.2347 142.931 13.7213 142.819 13.404C142.707 13.0867 142.492 12.872 142.175 12.76C141.876 12.648 141.391 12.5733 140.719 12.536V11.976C141.503 12.032 142.698 12.06 144.303 12.06C145.796 12.06 146.982 12.032 147.859 11.976V12.536C147.187 12.5733 146.692 12.648 146.375 12.76C146.076 12.872 145.871 13.0867 145.759 13.404C145.647 13.7213 145.591 14.2347 145.591 14.944V20.012C146.244 19.9747 146.86 19.8253 147.439 19.564C148.018 19.284 148.652 18.808 149.343 18.136L152.675 14.72C153.16 14.272 153.403 13.852 153.403 13.46C153.403 13.18 153.263 12.956 152.983 12.788C152.703 12.62 152.292 12.5267 151.751 12.508V11.976C152.759 12.032 153.86 12.06 155.055 12.06C155.858 12.06 156.52 12.032 157.043 11.976V12.508C156.371 12.6387 155.811 12.8347 155.363 13.096C154.915 13.3573 154.336 13.8333 153.627 14.524L149.231 18.92L155.391 26.732ZM179.601 9.176C179.47 10.5013 179.405 11.696 179.405 12.76C179.405 13.6933 179.433 14.4587 179.489 15.056H178.845C178.696 13.6187 178.509 12.5547 178.285 11.864C178.061 11.1547 177.669 10.6413 177.109 10.324C176.549 9.988 175.69 9.82 174.533 9.82H172.769C172.097 9.82 171.602 9.876 171.285 9.988C170.986 10.0813 170.781 10.2867 170.669 10.604C170.557 10.9213 170.501 11.4347 170.501 12.144V19.032H172.545C173.198 19.032 173.702 18.8827 174.057 18.584C174.412 18.2667 174.645 17.9027 174.757 17.492C174.888 17.0627 174.99 16.5307 175.065 15.896L175.149 15.336H175.793C175.737 16.12 175.709 16.9973 175.709 17.968V19.312C175.709 20.264 175.765 21.5893 175.877 23.288H175.233C175.214 23.1573 175.158 22.7093 175.065 21.944C174.972 21.16 174.71 20.572 174.281 20.18C173.87 19.788 173.292 19.592 172.545 19.592H170.501V26.032C170.501 26.7413 170.576 27.2547 170.725 27.572C170.874 27.8893 171.136 28.104 171.509 28.216C171.882 28.328 172.489 28.4027 173.329 28.44V29C172.358 28.944 170.986 28.916 169.213 28.916C167.608 28.916 166.413 28.944 165.629 29V28.44C166.301 28.4027 166.786 28.328 167.085 28.216C167.402 28.104 167.617 27.8893 167.729 27.572C167.841 27.2547 167.897 26.7413 167.897 26.032V12.144C167.897 11.4347 167.841 10.9213 167.729 10.604C167.617 10.2867 167.402 10.072 167.085 9.96C166.786 9.848 166.301 9.77333 165.629 9.736V9.176C167.458 9.232 170.165 9.26 173.749 9.26C176.493 9.26 178.444 9.232 179.601 9.176ZM188.711 12.536C188.039 12.5733 187.544 12.648 187.227 12.76C186.928 12.872 186.723 13.0867 186.611 13.404C186.499 13.7213 186.443 14.2347 186.443 14.944V26.032C186.443 26.7413 186.499 27.2547 186.611 27.572C186.723 27.8893 186.928 28.104 187.227 28.216C187.544 28.328 188.039 28.4027 188.711 28.44V29C187.852 28.944 186.667 28.916 185.155 28.916C183.549 28.916 182.355 28.944 181.571 29V28.44C182.243 28.4027 182.728 28.328 183.027 28.216C183.344 28.104 183.559 27.8893 183.671 27.572C183.783 27.2547 183.839 26.7413 183.839 26.032V14.944C183.839 14.2347 183.783 13.7213 183.671 13.404C183.559 13.0867 183.344 12.872 183.027 12.76C182.728 12.648 182.243 12.5733 181.571 12.536V11.976C182.355 12.032 183.549 12.06 185.155 12.06C186.648 12.06 187.833 12.032 188.711 11.976V12.536ZM205.339 12.06C206.123 12.06 206.748 12.032 207.215 11.976V12.536C206.692 12.6667 206.272 12.928 205.955 13.32C205.637 13.6933 205.273 14.3467 204.863 15.28L198.731 29.14H198.283L191.731 14.328C191.227 13.1707 190.583 12.5733 189.799 12.536V11.976C190.564 12.032 191.563 12.06 192.795 12.06C194.4 12.06 195.595 12.032 196.379 11.976V12.536C195.688 12.5733 195.175 12.6667 194.839 12.816C194.521 12.9653 194.363 13.2173 194.363 13.572C194.363 13.8707 194.493 14.3093 194.755 14.888L199.571 25.752L203.743 16.456C204.209 15.448 204.443 14.6547 204.443 14.076C204.443 13.5533 204.256 13.18 203.883 12.956C203.528 12.7133 202.977 12.5733 202.231 12.536V11.976C202.791 12.032 203.827 12.06 205.339 12.06ZM222.089 25.696C222.089 26.6667 222.154 27.768 222.285 29C221.071 28.944 219.027 28.916 216.153 28.916C212.699 28.916 210.086 28.944 208.313 29V28.44C208.985 28.4027 209.47 28.328 209.769 28.216C210.086 28.104 210.301 27.8893 210.413 27.572C210.525 27.2547 210.581 26.7413 210.581 26.032V14.944C210.581 14.2347 210.525 13.7213 210.413 13.404C210.301 13.0867 210.086 12.872 209.769 12.76C209.47 12.648 208.985 12.5733 208.313 12.536V11.976C210.086 12.032 212.699 12.06 216.153 12.06C218.766 12.06 220.623 12.032 221.725 11.976C221.594 13.096 221.529 14.104 221.529 15C221.529 15.728 221.557 16.3067 221.613 16.736H220.969C220.838 15.2053 220.511 14.1413 219.989 13.544C219.485 12.928 218.654 12.62 217.497 12.62H215.453C214.781 12.62 214.286 12.676 213.969 12.788C213.67 12.8813 213.465 13.0867 213.353 13.404C213.241 13.7213 213.185 14.2347 213.185 14.944V20.152H215.509C216.106 20.152 216.563 20.0027 216.881 19.704C217.198 19.3867 217.413 19.0507 217.525 18.696C217.637 18.3227 217.739 17.856 217.833 17.296H218.477C218.421 17.9307 218.393 18.6213 218.393 19.368V20.432C218.393 21.16 218.449 22.2053 218.561 23.568H217.917C217.805 22.672 217.59 21.972 217.273 21.468C216.955 20.964 216.367 20.712 215.509 20.712H213.185V26.032C213.185 26.7413 213.241 27.2547 213.353 27.572C213.465 27.8893 213.67 28.104 213.969 28.216C214.286 28.3093 214.781 28.356 215.453 28.356H217.497C218.43 28.356 219.167 28.2067 219.709 27.908C220.25 27.6093 220.661 27.1333 220.941 26.48C221.221 25.808 221.417 24.8747 221.529 23.68H222.173C222.117 24.184 222.089 24.856 222.089 25.696Z" fill="white"/>
<path d="M39.9973 17.0405L31.6055 13.8167L33.0523 4.82403L24.5825 7.83205L19.9987 0L15.4148 7.83205L6.945 4.82403L8.39182 13.8167L0 17.0405L6.79978 22.9855L2.41226 30.9336L11.3836 31.0483L13.0537 40L20 34.2325L26.9463 40L28.6164 31.0483L37.5877 30.9336L33.2002 22.9855L40 17.0405H39.9973Z" fill="white"/>
<path d="M19.5441 7.19698C12.277 7.19698 6.38663 13.5442 6.38663 21.3747C6.38663 22.9432 6.62357 24.4523 7.0598 25.8625C9.36031 24.3682 11.4156 23.3203 13.223 22.6503C11.1741 22.9967 9.41725 24.1099 6.92847 22.8957C8.73674 21.1818 11.9529 18.8305 14.8668 18.4713C16.3904 17.1364 18.7708 15.7569 20.0051 16.1695C21.7528 14.51 23.9008 12.3972 26.2004 10.8753C26.812 11.8728 27.1812 13.0949 26.9195 14.4496C22.3139 15.6975 23.3856 23.6458 27.6928 18.6138C28.0564 19.4203 28.2318 20.2595 28.2135 21.1709C26.3409 23.2599 24.3756 25.0639 22.3717 26.6007C22.3984 28.0821 22.0494 29.8683 21.2816 31.8376C20.9584 32.6659 20.8619 34.0849 22.5921 35.1695C28.388 33.6871 32.7006 28.0742 32.7006 21.3747C32.7006 13.5442 26.8093 7.19698 19.5432 7.19698H19.5441Z" fill="#5AAD80"/>
</svg>
