<svg width="33" height="34" viewBox="0 0 33 34" fill="none" xmlns="http://www.w3.org/2000/svg">
<rect width="33" height="34" fill="#E5E5E5"/>
<g id="Frame 103">
<g id="FenriskLogos/Variant3">
<path id="Vector" d="M16.1179 0C7.21575 0 0 7.61662 0 17.0133C0 18.8955 0.29025 20.7064 0.824625 22.3986C3.64275 20.6055 6.1605 19.3479 8.3745 18.544C5.86462 18.9596 3.7125 20.2956 0.66375 18.8385C2.87888 16.7817 6.81862 13.9602 10.3883 13.5292C12.2546 11.9272 15.1706 10.2719 16.6826 10.7671C18.8235 8.77562 21.4549 6.24031 24.2719 4.41394C25.0211 5.61094 25.4734 7.0775 25.1528 8.70319C19.5109 10.2006 20.8238 19.7386 26.1 13.7002C26.5455 14.668 26.7604 15.675 26.7379 16.7687C24.444 19.2755 22.0365 21.4403 19.5818 23.2845C19.6144 25.0622 19.1869 27.2056 18.2464 29.5687C17.8504 30.5627 17.7323 32.2656 19.8518 33.5671C26.9516 31.7882 32.2346 25.0527 32.2346 17.0133C32.2346 7.61662 25.0178 0 16.1168 0H16.1179Z" fill="black"/>
</g>
</g>
</svg>
